<?xml version="1.0" standalone="no"?><!DOCTYPE svg PUBLIC "-//W3C//DTD SVG 1.1//EN" "http://www.w3.org/Graphics/SVG/1.1/DTD/svg11.dtd"><svg t="1696724965449" class="icon" viewBox="0 0 1076 1024" version="1.1" xmlns="http://www.w3.org/2000/svg" p-id="21848" xmlns:xlink="http://www.w3.org/1999/xlink" width="134.5" height="128"><path d="M986.22796 0H90.275175A90.275175 90.275175 0 0 0 0 90.086315v634.570269a90.275175 90.275175 0 0 0 90.275175 90.275175h291.411288l-51.369975 152.410181H226.632239a28.32903 28.32903 0 0 0 0 56.65806h623.238657a28.32903 28.32903 0 0 0 0-56.65806h-103.495389l-51.369974-152.410181h291.222427A90.275175 90.275175 0 0 0 1076.503135 724.845444V90.086315A90.275175 90.275175 0 0 0 986.22796 0z m0 56.65806A33.617115 33.617115 0 0 1 1019.845076 90.086315V623.238657H56.65806V90.086315A33.617115 33.617115 0 0 1 90.275175 56.65806zM389.996311 967.34194l51.369975-152.410181h193.770564l51.369974 152.410181z m287.822944-209.06824H90.275175A33.617115 33.617115 0 0 1 56.65806 724.845444V679.896717h963.187016v45.704168a33.617115 33.617115 0 0 1-33.428256 33.617116z" fill="#dbdbdb" p-id="21849"></path></svg>